<svg xmlns="http://www.w3.org/2000/svg" width="40" height="40" viewBox="0 0 40 40">
  <g id="icons_Q2" data-name="icons Q2" transform="translate(-4 -4)">
    <path id="Path_205" data-name="Path 205" d="M40,8V32H13.6l-1.2,1.1L8,37.3V8H40m2-4H6A2,2,0,0,0,4,6V42a1.98,1.98,0,0,0,3.4,1.4L15.2,36H42a2,2,0,0,0,2-2V6A2,2,0,0,0,42,4Z" fill="#fff"/>
    <rect id="Rectangle_141" data-name="Rectangle 141" width="20" height="4" rx="2" transform="translate(14 14)" fill="#fff"/>
    <rect id="Rectangle_142" data-name="Rectangle 142" width="12" height="4" rx="2" transform="translate(14 22)" fill="#fff"/>
  </g>
</svg>
