<svg xmlns="http://www.w3.org/2000/svg" width="21" height="21" viewBox="0 0 21 21">
  <path id="Path_cart" data-name="Path / cart" d="M17.8,18.8a2.1,2.1,0,1,0,2.1,2.1,2.093,2.093,0,0,0-2.1-2.1M1,2V4.1H3.1l3.78,7.969L5.452,14.642A2.14,2.14,0,0,0,5.2,15.65a2.1,2.1,0,0,0,2.1,2.1H19.9v-2.1H7.741a.262.262,0,0,1-.262-.262.224.224,0,0,1,.031-.126l.945-1.712h7.823a2.111,2.111,0,0,0,1.837-1.082l3.759-6.794A1.328,1.328,0,0,0,22,5.15,1.05,1.05,0,0,0,20.95,4.1H5.42L4.433,2M7.3,18.8a2.1,2.1,0,1,0,2.1,2.1A2.093,2.093,0,0,0,7.3,18.8Z" transform="translate(-1 -2)" fill="#111"/>
</svg>
