<svg xmlns="http://www.w3.org/2000/svg" width="181.207" height="73.431" viewBox="0 0 181.207 73.431">
  <g id="Group_90" data-name="Group 90" transform="translate(-840.381 -510)">
    <path id="Path_11" data-name="Path 11" d="M1.906-18.983V-36.425H8.322a12.2,12.2,0,0,1,3.077.335,5.861,5.861,0,0,1,2.071.946,3.584,3.584,0,0,1,1.167,1.484A5.016,5.016,0,0,1,15-31.708a3.825,3.825,0,0,1-.168,1.131,3.33,3.33,0,0,1-.527,1.024,3.933,3.933,0,0,1-.922.868,5.942,5.942,0,0,1-1.353.676,4.8,4.8,0,0,1,2.55,1.359,3.519,3.519,0,0,1,.826,2.412,4.988,4.988,0,0,1-.431,2.071,4.743,4.743,0,0,1-1.263,1.67,5.988,5.988,0,0,1-2.053,1.113,8.928,8.928,0,0,1-2.789.4Zm4.046-7.4v4.345H8.8a3.573,3.573,0,0,0,1.311-.2,2.072,2.072,0,0,0,.8-.527,1.767,1.767,0,0,0,.4-.73,3.215,3.215,0,0,0,.108-.826,2.757,2.757,0,0,0-.126-.862,1.425,1.425,0,0,0-.431-.646,2.106,2.106,0,0,0-.808-.407,4.709,4.709,0,0,0-1.269-.144Zm0-2.705H8.059a6.942,6.942,0,0,0,1.209-.1,2.514,2.514,0,0,0,.916-.335,1.539,1.539,0,0,0,.575-.658,2.469,2.469,0,0,0,.2-1.053,2.964,2.964,0,0,0-.156-1.035,1.483,1.483,0,0,0-.479-.664,2.01,2.01,0,0,0-.82-.359A5.63,5.63,0,0,0,8.322-33.4H5.952Zm17.19-2.5a7.17,7.17,0,0,1,2.574.443,5.645,5.645,0,0,1,1.993,1.269A5.716,5.716,0,0,1,29-27.872a7.234,7.234,0,0,1,.461,2.652A7.365,7.365,0,0,1,29-22.545a5.756,5.756,0,0,1-1.293,2.023,5.672,5.672,0,0,1-1.993,1.281,7.084,7.084,0,0,1-2.574.449,7.167,7.167,0,0,1-2.592-.449,5.784,5.784,0,0,1-2.011-1.281,5.672,5.672,0,0,1-1.3-2.023,7.365,7.365,0,0,1-.461-2.676,7.234,7.234,0,0,1,.461-2.652,5.633,5.633,0,0,1,1.3-2.005,5.756,5.756,0,0,1,2.011-1.269A7.254,7.254,0,0,1,23.142-31.589Zm0,10.044a2.108,2.108,0,0,0,1.885-.9,5,5,0,0,0,.6-2.747,4.967,4.967,0,0,0-.6-2.741,2.112,2.112,0,0,0-1.885-.9,2.165,2.165,0,0,0-1.927.9A4.927,4.927,0,0,0,20.6-25.2a4.959,4.959,0,0,0,.611,2.747A2.16,2.16,0,0,0,23.142-21.545ZM37.029-31.589a7.17,7.17,0,0,1,2.574.443A5.645,5.645,0,0,1,41.6-29.877a5.716,5.716,0,0,1,1.293,2.005,7.234,7.234,0,0,1,.461,2.652,7.365,7.365,0,0,1-.461,2.676A5.756,5.756,0,0,1,41.6-20.521,5.672,5.672,0,0,1,39.6-19.241a7.084,7.084,0,0,1-2.574.449,7.167,7.167,0,0,1-2.592-.449,5.784,5.784,0,0,1-2.011-1.281,5.672,5.672,0,0,1-1.3-2.023,7.365,7.365,0,0,1-.461-2.676,7.234,7.234,0,0,1,.461-2.652,5.633,5.633,0,0,1,1.3-2.005,5.756,5.756,0,0,1,2.011-1.269A7.254,7.254,0,0,1,37.029-31.589Zm0,10.044a2.108,2.108,0,0,0,1.885-.9,5,5,0,0,0,.6-2.747,4.967,4.967,0,0,0-.6-2.741,2.112,2.112,0,0,0-1.885-.9,2.165,2.165,0,0,0-1.927.9,4.927,4.927,0,0,0-.611,2.741,4.959,4.959,0,0,0,.611,2.747A2.16,2.16,0,0,0,37.029-21.545Zm12.713,2.753a4.376,4.376,0,0,1-1.562-.257,3.1,3.1,0,0,1-1.137-.73,3.113,3.113,0,0,1-.7-1.143,4.426,4.426,0,0,1-.239-1.5v-6.416H45.049a.7.7,0,0,1-.491-.186.7.7,0,0,1-.2-.545v-1.448L46.33-31.4l.73-3.029A.737.737,0,0,1,47.874-35h1.939v3.627H52.83v2.538H49.814v6.165a1.16,1.16,0,0,0,.21.712.708.708,0,0,0,.6.281,1.188,1.188,0,0,0,.341-.042,1.359,1.359,0,0,0,.239-.1q.1-.054.192-.1a.491.491,0,0,1,.209-.042.432.432,0,0,1,.269.078.963.963,0,0,1,.209.245l1.125,1.76a5.121,5.121,0,0,1-1.616.808A6.423,6.423,0,0,1,49.742-18.792ZM62.551-28.68a.96.96,0,0,1-.305.323.8.8,0,0,1-.413.1,1.319,1.319,0,0,1-.527-.114l-.569-.245a6.2,6.2,0,0,0-.688-.245,3.073,3.073,0,0,0-.874-.114,1.848,1.848,0,0,0-1.083.269.868.868,0,0,0-.377.748.75.75,0,0,0,.245.575,2.252,2.252,0,0,0,.652.4,9,9,0,0,0,.922.329q.515.156,1.053.347a9.381,9.381,0,0,1,1.053.449,3.941,3.941,0,0,1,.922.634,2.832,2.832,0,0,1,.652.916,3.1,3.1,0,0,1,.245,1.293,4.251,4.251,0,0,1-.335,1.7,3.61,3.61,0,0,1-1,1.341,4.727,4.727,0,0,1-1.64.874,7.387,7.387,0,0,1-2.245.311,6.83,6.83,0,0,1-1.269-.12,8.79,8.79,0,0,1-1.227-.323,6.686,6.686,0,0,1-1.1-.485,4.751,4.751,0,0,1-.862-.6l.862-1.365a1.241,1.241,0,0,1,.371-.377,1.031,1.031,0,0,1,.563-.138,1.171,1.171,0,0,1,.581.144l.557.311a4.641,4.641,0,0,0,.7.311,3.036,3.036,0,0,0,1.012.144,2.569,2.569,0,0,0,.73-.09,1.287,1.287,0,0,0,.479-.245.98.98,0,0,0,.263-.347.976.976,0,0,0,.084-.4.806.806,0,0,0-.251-.611,2.19,2.19,0,0,0-.658-.413,8.028,8.028,0,0,0-.928-.323q-.521-.15-1.059-.341a8.511,8.511,0,0,1-1.059-.461A3.645,3.645,0,0,1,55.1-25.2a3.17,3.17,0,0,1-.658-1.012,3.737,3.737,0,0,1-.251-1.448,3.774,3.774,0,0,1,.305-1.5,3.488,3.488,0,0,1,.916-1.251,4.5,4.5,0,0,1,1.532-.856,6.625,6.625,0,0,1,2.155-.317,6.927,6.927,0,0,1,1.3.12,6.637,6.637,0,0,1,1.179.335,5.647,5.647,0,0,1,1.006.509,4.829,4.829,0,0,1,.8.64Zm7.3,9.888a4.376,4.376,0,0,1-1.562-.257,3.1,3.1,0,0,1-1.137-.73,3.113,3.113,0,0,1-.7-1.143,4.426,4.426,0,0,1-.239-1.5v-6.416H65.161a.7.7,0,0,1-.491-.186.7.7,0,0,1-.2-.545v-1.448l1.975-.383.73-3.029A.738.738,0,0,1,67.986-35h1.939v3.627h3.017v2.538H69.925v6.165a1.16,1.16,0,0,0,.209.712.708.708,0,0,0,.6.281,1.188,1.188,0,0,0,.341-.042,2.511,2.511,0,0,0,.239-.1s.132-.068.192-.1a.491.491,0,0,1,.209-.042.432.432,0,0,1,.269.078.963.963,0,0,1,.209.245l1.125,1.76a5.121,5.121,0,0,1-1.616.808A6.423,6.423,0,0,1,69.853-18.792Zm5.219-.192V-31.4h2.2a1.879,1.879,0,0,1,.461.048.808.808,0,0,1,.311.15.639.639,0,0,1,.192.269,2.429,2.429,0,0,1,.114.407l.2,1.161a6.083,6.083,0,0,1,1.532-1.664,3.113,3.113,0,0,1,1.856-.611,2.138,2.138,0,0,1,1.365.407L82.83-28.5a.533.533,0,0,1-.192.353.65.65,0,0,1-.383.1,2.54,2.54,0,0,1-.479-.054,3.712,3.712,0,0,0-.694-.054,2.549,2.549,0,0,0-2.3,1.556v7.614Zm18.22,0a1.739,1.739,0,0,1-.8-.144,1.1,1.1,0,0,1-.449-.6l-.263-.682q-.467.4-.9.694a5.69,5.69,0,0,1-.892.509,4.4,4.4,0,0,1-.982.311,6.041,6.041,0,0,1-1.155.1,5.065,5.065,0,0,1-1.544-.221,3.222,3.222,0,0,1-1.179-.652,2.869,2.869,0,0,1-.748-1.071,3.864,3.864,0,0,1-.263-1.478,3.1,3.1,0,0,1,.335-1.353,3.337,3.337,0,0,1,1.161-1.263,7.38,7.38,0,0,1,2.227-.952,14.94,14.94,0,0,1,3.531-.431v-.527a2.276,2.276,0,0,0-.449-1.574,1.651,1.651,0,0,0-1.275-.485,3.382,3.382,0,0,0-1.077.144,4.845,4.845,0,0,0-.748.323q-.329.18-.64.323a1.759,1.759,0,0,1-.742.144,1.122,1.122,0,0,1-.652-.186,1.378,1.378,0,0,1-.425-.461l-.67-1.161a7.546,7.546,0,0,1,2.5-1.478,8.75,8.75,0,0,1,2.939-.485,5.375,5.375,0,0,1,2.029.365,4.367,4.367,0,0,1,1.532,1.018,4.446,4.446,0,0,1,.964,1.55,5.571,5.571,0,0,1,.335,1.963v7.757Zm-4.262-2.263a2.945,2.945,0,0,0,1.257-.251,3.829,3.829,0,0,0,1.089-.814v-1.724a12.32,12.32,0,0,0-1.832.192,4.449,4.449,0,0,0-1.137.359,1.376,1.376,0,0,0-.581.491,1.162,1.162,0,0,0-.162.6,1.04,1.04,0,0,0,.347.892A1.694,1.694,0,0,0,89.031-21.246Zm8.6,6.2V-31.4h2.3a1.024,1.024,0,0,1,.581.156.831.831,0,0,1,.329.467l.275.91a6.24,6.24,0,0,1,.772-.718,5.087,5.087,0,0,1,.886-.557,4.882,4.882,0,0,1,1.018-.365,5.066,5.066,0,0,1,1.191-.132,3.823,3.823,0,0,1,1.8.431,4.138,4.138,0,0,1,1.425,1.245,6.282,6.282,0,0,1,.94,1.993,9.632,9.632,0,0,1,.341,2.676,8.247,8.247,0,0,1-.389,2.586A6.5,6.5,0,0,1,108-20.647a5.018,5.018,0,0,1-1.676,1.365,4.739,4.739,0,0,1-2.161.491,4.23,4.23,0,0,1-1.628-.275,4.42,4.42,0,0,1-1.2-.742v4.764ZM103.683-28.8a3.206,3.206,0,0,0-.736.078,2.7,2.7,0,0,0-.611.221,2.315,2.315,0,0,0-.521.365,5.408,5.408,0,0,0-.479.509v5.267a2.346,2.346,0,0,0,.91.652,2.887,2.887,0,0,0,1.03.186,2.186,2.186,0,0,0,.946-.2,1.927,1.927,0,0,0,.748-.652,3.475,3.475,0,0,0,.5-1.167,7.311,7.311,0,0,0,.18-1.748,8.041,8.041,0,0,0-.144-1.652,3.4,3.4,0,0,0-.4-1.083,1.557,1.557,0,0,0-.617-.593A1.768,1.768,0,0,0,103.683-28.8ZM10.118,6.826A6.885,6.885,0,0,0,11.6,6.683,7.267,7.267,0,0,0,12.823,6.3V3.654H11.1a.837.837,0,0,1-.6-.2.678.678,0,0,1-.215-.515V.709h6.2V8.071a9.138,9.138,0,0,1-1.395.844,9.009,9.009,0,0,1-1.544.581,11.5,11.5,0,0,1-1.748.335,17.316,17.316,0,0,1-1.993.108,9.145,9.145,0,0,1-3.543-.676A8.611,8.611,0,0,1,3.444,7.395,8.6,8.6,0,0,1,1.576,4.57,9.189,9.189,0,0,1,.9,1.02a9.663,9.663,0,0,1,.646-3.585A8.075,8.075,0,0,1,3.4-5.384,8.391,8.391,0,0,1,6.3-7.228a10.515,10.515,0,0,1,3.813-.658,11.1,11.1,0,0,1,2.047.18,10.071,10.071,0,0,1,1.766.491,8.126,8.126,0,0,1,1.478.742,7.963,7.963,0,0,1,1.2.934L15.433-3.756a1.3,1.3,0,0,1-.4.4.953.953,0,0,1-.509.144,1.4,1.4,0,0,1-.742-.239q-.479-.287-.9-.5a5.515,5.515,0,0,0-.868-.341,5.688,5.688,0,0,0-.934-.192,9.163,9.163,0,0,0-1.1-.06,5.024,5.024,0,0,0-2.047.4,4.389,4.389,0,0,0-1.55,1.131A5.117,5.117,0,0,0,5.389-1.26a7.069,7.069,0,0,0-.347,2.28,7.34,7.34,0,0,0,.383,2.466,5.3,5.3,0,0,0,1.059,1.82,4.5,4.5,0,0,0,1.6,1.131A5.2,5.2,0,0,0,10.118,6.826ZM27.524,9.747a1.739,1.739,0,0,1-.8-.144,1.1,1.1,0,0,1-.449-.6l-.263-.682q-.467.4-.9.694a5.691,5.691,0,0,1-.892.509,4.4,4.4,0,0,1-.982.311,6.041,6.041,0,0,1-1.155.1,5.065,5.065,0,0,1-1.544-.221,3.222,3.222,0,0,1-1.179-.652,2.869,2.869,0,0,1-.748-1.071,3.864,3.864,0,0,1-.263-1.478,3.1,3.1,0,0,1,.335-1.353A3.337,3.337,0,0,1,19.85,3.9a7.38,7.38,0,0,1,2.227-.952,14.94,14.94,0,0,1,3.531-.431V1.99A2.276,2.276,0,0,0,25.159.416a1.651,1.651,0,0,0-1.275-.485,3.382,3.382,0,0,0-1.077.144A4.843,4.843,0,0,0,22.059.4q-.329.18-.64.323a1.759,1.759,0,0,1-.742.144,1.122,1.122,0,0,1-.652-.186A1.378,1.378,0,0,1,19.6.218l-.67-1.161a7.546,7.546,0,0,1,2.5-1.478,8.75,8.75,0,0,1,2.939-.485,5.375,5.375,0,0,1,2.029.365,4.367,4.367,0,0,1,1.532,1.018,4.446,4.446,0,0,1,.964,1.55,5.571,5.571,0,0,1,.335,1.963V9.747ZM23.262,7.485a2.944,2.944,0,0,0,1.257-.251,3.829,3.829,0,0,0,1.089-.814V4.7a12.32,12.32,0,0,0-1.832.192,4.449,4.449,0,0,0-1.137.359,1.376,1.376,0,0,0-.581.491,1.162,1.162,0,0,0-.162.6,1.04,1.04,0,0,0,.347.892A1.694,1.694,0,0,0,23.262,7.485ZM35.688-8.173V9.747H31.977V-8.173Zm6.823,0V9.747H38.8V-8.173Zm8.308,5.315a6.392,6.392,0,0,1,2.257.383,4.905,4.905,0,0,1,1.76,1.113A5.081,5.081,0,0,1,55.985.428a6.567,6.567,0,0,1,.413,2.4,5.239,5.239,0,0,1-.036.682,1.08,1.08,0,0,1-.132.419.5.5,0,0,1-.257.215,1.205,1.205,0,0,1-.413.06H48.4a3.5,3.5,0,0,0,.946,2.257,2.814,2.814,0,0,0,1.975.7,3.535,3.535,0,0,0,1.113-.156,5.616,5.616,0,0,0,.832-.347q.365-.192.67-.347a1.392,1.392,0,0,1,.64-.156.767.767,0,0,1,.67.323l1.077,1.329a5.516,5.516,0,0,1-1.239,1.071,6.439,6.439,0,0,1-1.365.646,7.4,7.4,0,0,1-1.4.323,10.51,10.51,0,0,1-1.335.09,6.969,6.969,0,0,1-2.448-.425,5.625,5.625,0,0,1-2-1.263,5.959,5.959,0,0,1-1.353-2.083,7.783,7.783,0,0,1-.5-2.9A6.556,6.556,0,0,1,45.115.913a5.729,5.729,0,0,1,3.148-3.28A6.361,6.361,0,0,1,50.819-2.858ZM50.891-.3a2.236,2.236,0,0,0-1.664.6,3.15,3.15,0,0,0-.79,1.742H53.07a3.276,3.276,0,0,0-.114-.862A2.09,2.09,0,0,0,52.585.44a1.888,1.888,0,0,0-.676-.533A2.313,2.313,0,0,0,50.891-.3ZM58.529,9.747V-2.667h2.2a1.878,1.878,0,0,1,.461.048.808.808,0,0,1,.311.15.639.639,0,0,1,.192.269,2.43,2.43,0,0,1,.114.407l.2,1.161A6.083,6.083,0,0,1,63.544-2.3,3.113,3.113,0,0,1,65.4-2.906a2.138,2.138,0,0,1,1.365.407L66.286.23a.533.533,0,0,1-.192.353.65.65,0,0,1-.383.1,2.541,2.541,0,0,1-.479-.054,3.712,3.712,0,0,0-.694-.054,2.549,2.549,0,0,0-2.3,1.556V9.747Zm14.964,3.22a1.06,1.06,0,0,1-1.173.718H69.542l2.394-5.028L66.98-2.667h3.28a1.047,1.047,0,0,1,.67.192,1.028,1.028,0,0,1,.335.455L73.3,3.331a11.789,11.789,0,0,1,.467,1.484q.12-.383.263-.754t.275-.754L76.15-2.02a.908.908,0,0,1,.377-.461,1.078,1.078,0,0,1,.6-.186h2.993Z" transform="translate(912.111 558.425)"/>
    <g id="Group_1" data-name="Group 1" transform="translate(840.381 510)">
      <path id="Path_7" data-name="Path 7" d="M88.962,0c13.518,0,29.372,10.959,29.372,24.477A24.477,24.477,0,0,1,93.858,48.954H69.381c-13.518,0-9.3-18.3-9.3-31.82Z" transform="translate(-59.457 24.477)" fill="#3776ff"/>
      <path id="Path_8" data-name="Path 8" d="M88.962,48.954c13.518,0,29.372-10.959,29.372-24.477A24.477,24.477,0,0,0,93.858,0H69.381c-13.518,0-9.3,20.749-9.3,34.268Z" transform="translate(-59.457 0)" fill="#3776ff"/>
      <path id="Path_9" data-name="Path 9" d="M20.956-58.379a14.038,14.038,0,0,0,3.027-.293,14.82,14.82,0,0,0,2.49-.781v-5.395L21.3-70.853H33.943V-55.84A18.636,18.636,0,0,1,31.1-54.119a18.37,18.37,0,0,1-3.149,1.184,23.446,23.446,0,0,1-3.564.684,35.311,35.311,0,0,1-4.064.22A18.648,18.648,0,0,1,13.1-53.411a17.559,17.559,0,0,1-5.749-3.808A17.527,17.527,0,0,1,3.539-62.98,18.739,18.739,0,0,1,2.16-70.218a19.7,19.7,0,0,1,1.318-7.311A16.467,16.467,0,0,1,7.25-83.278a17.111,17.111,0,0,1,5.932-3.759,21.442,21.442,0,0,1,7.775-1.343,22.645,22.645,0,0,1,4.174.366,20.538,20.538,0,0,1,3.6,1A16.569,16.569,0,0,1,31.746-85.5a16.238,16.238,0,0,1,2.441,1.9l-2.392,3.637a2.658,2.658,0,0,1-.818.806,1.942,1.942,0,0,1-1.037.293,2.858,2.858,0,0,1-1.513-.488q-.976-.586-1.843-1.013a11.244,11.244,0,0,0-1.77-.7,11.6,11.6,0,0,0-1.9-.391,18.682,18.682,0,0,0-2.246-.122,10.245,10.245,0,0,0-4.174.818,8.95,8.95,0,0,0-3.161,2.307,10.434,10.434,0,0,0-2.014,3.576,14.415,14.415,0,0,0-.708,4.65,14.967,14.967,0,0,0,.781,5.029,10.8,10.8,0,0,0,2.16,3.71,9.173,9.173,0,0,0,3.271,2.307A10.593,10.593,0,0,0,20.956-58.379Z" transform="translate(10.601 106.305)" fill="#fff"/>
    </g>
  </g>
</svg>
