<svg xmlns="http://www.w3.org/2000/svg" width="36" height="36" viewBox="0 0 36 36">
  <g id="Group_411" data-name="Group 411" transform="translate(-168)">
    <path id="Path_207" data-name="Path 207" d="M18,0A18,18,0,1,1,0,18,18,18,0,0,1,18,0Z" transform="translate(168)" fill="#111"/>
    <path id="Icon_simple-behance" data-name="Icon simple-behance" d="M6.4,6.754a8.222,8.222,0,0,1,1.77.173,3.982,3.982,0,0,1,1.369.562,2.592,2.592,0,0,1,.885,1.033,3.685,3.685,0,0,1,.313,1.6,3,3,0,0,1-.467,1.715,3.377,3.377,0,0,1-1.385,1.125,3.249,3.249,0,0,1,1.864,1.263A3.784,3.784,0,0,1,11.36,16.4a3.812,3.812,0,0,1-.378,1.78,3.412,3.412,0,0,1-1.07,1.245,4.693,4.693,0,0,1-1.54.707,6.745,6.745,0,0,1-1.761.234H0V6.761H6.4Zm9.222,11.214a2.406,2.406,0,0,0,1.746.593,2.408,2.408,0,0,0,1.411-.412,1.7,1.7,0,0,0,.719-.867h2.386a4.489,4.489,0,0,1-1.752,2.536,5.058,5.058,0,0,1-2.84.765,5.651,5.651,0,0,1-2.095-.369,4.562,4.562,0,0,1-1.586-1.051,4.7,4.7,0,0,1-.993-1.632,6.05,6.05,0,0,1-.344-2.093,5.607,5.607,0,0,1,.372-2.056,4.786,4.786,0,0,1,2.633-2.751,4.941,4.941,0,0,1,2.047-.4,4.648,4.648,0,0,1,2.194.482A4.426,4.426,0,0,1,21.049,12a5.135,5.135,0,0,1,.867,1.862,7.44,7.44,0,0,1,.194,2.194h-7.09a2.794,2.794,0,0,0,.655,1.9l-.074.028Zm-9.442.046a3.882,3.882,0,0,0,.835-.086,2.138,2.138,0,0,0,.7-.277,1.366,1.366,0,0,0,.479-.538,1.89,1.89,0,0,0,.175-.885,1.79,1.79,0,0,0-.59-1.494,2.539,2.539,0,0,0-1.558-.443H2.987v3.734h3.19V18ZM18.724,12.8a2.029,2.029,0,0,0-1.528-.546,2.286,2.286,0,0,0-1.075.219,1.987,1.987,0,0,0-.682.544,1.919,1.919,0,0,0-.361.692,3.232,3.232,0,0,0-.124.655h4.391a2.634,2.634,0,0,0-.627-1.558v.009ZM6.012,12.238a2.147,2.147,0,0,0,1.314-.38,1.419,1.419,0,0,0,.511-1.234,1.737,1.737,0,0,0-.166-.78,1.348,1.348,0,0,0-.461-.472,1.952,1.952,0,0,0-.664-.237,4.081,4.081,0,0,0-.775-.068H2.978v3.172H6.012ZM14.4,7.666h5.5V9.007H14.4V7.665Z" transform="translate(175 4.246)" fill="#fff"/>
  </g>
</svg>
