<svg xmlns="http://www.w3.org/2000/svg" width="36" height="36" viewBox="0 0 36 36">
  <g id="Group_412" data-name="Group 412" transform="translate(-224)">
    <path id="Path_208" data-name="Path 208" d="M18,0A18,18,0,1,1,0,18,18,18,0,0,1,18,0Z" transform="translate(224)" fill="#111"/>
    <path id="Icon_awesome-dribbble" data-name="Icon awesome-dribbble" d="M11.975.563A11.412,11.412,0,1,0,23.387,11.975,11.425,11.425,0,0,0,11.975.563ZM19.52,5.825a9.7,9.7,0,0,1,2.2,6.072,22.78,22.78,0,0,0-6.788-.314c-.265-.646-.515-1.215-.857-1.915A12.985,12.985,0,0,0,19.52,5.825ZM18.436,4.7a11.006,11.006,0,0,1-5.109,3.521A52.031,52.031,0,0,0,9.69,2.513,9.723,9.723,0,0,1,18.436,4.7ZM7.83,3.168a62.2,62.2,0,0,1,3.614,5.637A36.359,36.359,0,0,1,2.433,9.993,9.783,9.783,0,0,1,7.83,3.168Zm-5.6,8.822c0-.1,0-.2,0-.3A35.957,35.957,0,0,0,12.25,10.3c.279.546.546,1.1.79,1.654a15.1,15.1,0,0,0-8.307,6.548A9.709,9.709,0,0,1,2.227,11.989Zm3.764,7.69A13.71,13.71,0,0,1,13.7,13.57a40.518,40.518,0,0,1,2.079,7.392,9.728,9.728,0,0,1-9.791-1.283Zm11.43.391a42.072,42.072,0,0,0-1.894-6.95,14.307,14.307,0,0,1,6.072.417,9.765,9.765,0,0,1-4.178,6.533Z" transform="translate(230.025 5.939)" fill="#fff"/>
  </g>
</svg>
