<svg id="Group_181" data-name="Group 181" xmlns="http://www.w3.org/2000/svg" width="36" height="36" viewBox="0 0 36 36">
  <circle id="Ellipse_18" data-name="Ellipse 18" cx="18" cy="18" r="18" fill="#111"/>
  <path id="Icon_zocial-twitter" data-name="Icon zocial-twitter" d="M-4.738,17.993q.632.061,1.262.062a10.539,10.539,0,0,0,6.6-2.234,5.167,5.167,0,0,1-3.09-1.036A5.091,5.091,0,0,1-1.836,12.2a5.079,5.079,0,0,0,.988.083A5.276,5.276,0,0,0,.561,12.1,5.132,5.132,0,0,1-2.5,10.306,5.01,5.01,0,0,1-3.708,6.985V6.922a5.04,5.04,0,0,0,2.418.641A5.158,5.158,0,0,1-3.024,5.712,5.026,5.026,0,0,1-3.666,3.22,5.01,5.01,0,0,1-2.93.592,14.708,14.708,0,0,0,1.9,4.451a15.126,15.126,0,0,0,6.108,1.6,5.781,5.781,0,0,1-.148-1.2A4.981,4.981,0,0,1,9.413,1.172,5.17,5.17,0,0,1,13.178-.359,5.137,5.137,0,0,1,17.046,1.3,10.781,10.781,0,0,0,20.411.013,4.99,4.99,0,0,1,18.1,2.91a10.971,10.971,0,0,0,3.028-.828A10.089,10.089,0,0,1,18.5,4.792v.684a14.75,14.75,0,0,1-.62,4.189,14.8,14.8,0,0,1-1.892,4.015,16.067,16.067,0,0,1-3.038,3.4,13.525,13.525,0,0,1-4.237,2.37,15.712,15.712,0,0,1-5.31.878A15.074,15.074,0,0,1-4.738,17.993Z" transform="translate(9.806 8.014)" fill="#fff"/>
</svg>
