<svg xmlns="http://www.w3.org/2000/svg" width="36" height="36" viewBox="0 0 36 36">
  <path id="Path_pinterest" data-name="Path / pinterest" d="M14.672,37.172A18.209,18.209,0,0,0,20,38a18.028,18.028,0,1,0-6.408-1.188,19.547,19.547,0,0,1,0-5.328l2.07-8.892a6.53,6.53,0,0,1-.522-2.7c0-2.484,1.548-4.338,3.312-4.338,1.548,0,2.268,1.134,2.268,2.592,0,1.548-1.026,3.762-1.548,5.886a2.754,2.754,0,0,0,2.736,3.312c3.2,0,5.688-3.42,5.688-8.244,0-4.32-3.1-7.272-7.542-7.272a7.717,7.717,0,0,0-8.064,7.758,6.816,6.816,0,0,0,1.332,4.14c.162.108.162.252.108.522l-.522,1.962c0,.306-.2.414-.5.2-2.3-1.008-3.636-4.284-3.636-6.93,0-5.688,4.032-10.854,11.808-10.854,6.192,0,11.016,4.446,11.016,10.35,0,6.192-3.834,11.16-9.324,11.16A4.879,4.879,0,0,1,18.2,28.1l-1.206,4.266a21.252,21.252,0,0,1-2.322,4.86Z" transform="translate(-2 -2)" fill="#111"/>
</svg>
