<svg xmlns="http://www.w3.org/2000/svg" width="36" height="36" viewBox="0 0 36 36">
  <g id="Group_413" data-name="Group 413" transform="translate(-224)">
    <g id="Group_414" data-name="Group 414">
      <path id="Path_208" data-name="Path 208" d="M18,0A18,18,0,1,1,0,18,18,18,0,0,1,18,0Z" transform="translate(224)" fill="#111"/>
      <path id="Icon_simple-youtube" data-name="Icon simple-youtube" d="M17.83,7.388A2.281,2.281,0,0,0,16.245,5.8a54.664,54.664,0,0,0-7.129-.38,53.443,53.443,0,0,0-7.129.38A2.281,2.281,0,0,0,.4,7.388a23.708,23.708,0,0,0-.4,4.4A23.708,23.708,0,0,0,.4,16.18a2.281,2.281,0,0,0,1.584,1.584,54.544,54.544,0,0,0,7.129.381,54.674,54.674,0,0,0,7.129-.381A2.281,2.281,0,0,0,17.83,16.18a23.708,23.708,0,0,0,.379-4.388,23.708,23.708,0,0,0-.379-4.4ZM7.294,14.517V9.06l4.753,2.733Z" transform="translate(232.993 6.576)" fill="#fff"/>
    </g>
  </g>
</svg>
